<svg width="80" height="80" viewBox="0 0 80 80" fill="none" xmlns="http://www.w3.org/2000/svg">
<path d="M40 80C62.0914 80 80 62.0914 80 40C80 17.9086 62.0914 0 40 0C17.9086 0 0 17.9086 0 40C0 62.0914 17.9086 80 40 80Z" fill="black"/>
<path d="M21.8331 51.3118C22.0991 51.3949 22.3651 51.453 22.6311 51.4863C22.8972 51.5029 23.1632 51.5112 23.4292 51.5112C24.0943 51.5112 24.7344 51.4198 25.3496 51.237C25.9648 51.054 26.5384 50.7964 27.0705 50.4638C27.6191 50.1146 28.1013 49.6989 28.517 49.2167C28.9493 48.718 29.2984 48.1693 29.5644 47.5706L34.5525 52.5835C33.9205 53.4813 33.1891 54.2878 32.3577 55.0029C31.5429 55.7177 30.6535 56.3247 29.6891 56.8235C28.7414 57.3223 27.7355 57.6964 26.6714 57.9457C25.6239 58.2118 24.5432 58.3447 23.4292 58.3447C21.5504 58.3447 19.7797 57.9955 18.117 57.2973C16.471 56.5989 15.0245 55.6263 13.7775 54.3792C12.5471 53.1324 11.5745 51.6524 10.8595 49.9401C10.1446 48.2109 9.78711 46.3155 9.78711 44.2537C9.78711 42.1423 10.1446 40.2133 10.8595 38.4678C11.5745 36.722 12.5471 35.2337 13.7775 34.0035C15.0245 32.773 16.471 31.817 18.117 31.1352C19.7797 30.4536 21.5504 30.1128 23.4292 30.1128C24.5432 30.1128 25.6322 30.2458 26.6963 30.5118C27.7605 30.778 28.7664 31.1601 29.7141 31.6592C30.6784 32.158 31.5762 32.773 32.4075 33.5047C33.2389 34.2195 33.9706 35.026 34.6023 35.9238L21.8331 51.3118ZM25.3246 37.2706C25.0087 37.1543 24.6929 37.0792 24.377 37.046C24.0777 37.0127 23.7618 36.9961 23.4292 36.9961C22.4981 36.9961 21.6169 37.1709 20.7856 37.5198C19.9709 37.8524 19.2559 38.3346 18.6408 38.9666C18.0422 39.5983 17.5683 40.3632 17.2192 41.261C16.87 42.1423 16.6954 43.1398 16.6954 44.2537C16.6954 44.5032 16.7038 44.7857 16.7204 45.1017C16.7536 45.4177 16.7952 45.7417 16.8451 46.0743C16.9116 46.3903 16.9864 46.698 17.0695 46.997C17.1527 47.2964 17.2608 47.5623 17.3938 47.7952L25.3246 37.2706ZM69.2088 48.1943C69.2088 49.5909 68.9429 50.9127 68.4109 52.1598C67.8789 53.39 67.1472 54.4626 66.2162 55.377C65.3017 56.2915 64.2211 57.0146 62.974 57.5466C61.7435 58.0789 60.4217 58.3447 59.0085 58.3447C57.7448 58.3447 56.5312 58.1287 55.3672 57.6964C54.2035 57.2475 53.1475 56.5989 52.1998 55.7509C51.2688 56.5989 50.2214 57.2475 49.0574 57.6964C47.9103 58.1287 46.6965 58.3447 45.4162 58.3447C44.0029 58.3447 42.6811 58.0789 41.4509 57.5466C40.2205 57.0146 39.1398 56.2915 38.2085 55.377C37.294 54.4626 36.5709 53.39 36.0389 52.1598C35.5069 50.9127 35.2408 49.5909 35.2408 48.1943V31.1853H42.0494V48.1943C42.0494 48.6598 42.1325 49.1004 42.2986 49.5161C42.4817 49.9152 42.7226 50.2724 43.022 50.5884C43.338 50.8878 43.6955 51.1287 44.0943 51.3118C44.51 51.478 44.9506 51.561 45.4162 51.561C45.8817 51.561 46.3223 51.478 46.738 51.3118C47.1537 51.1287 47.5195 50.8878 47.8355 50.5884C48.1512 50.2724 48.3925 49.9152 48.5586 49.5161C48.7417 49.1004 48.8331 48.6598 48.8331 48.1943V31.1853H55.6168V48.1943C55.6168 48.6598 55.7082 49.1004 55.8909 49.5161C56.074 49.9152 56.3149 50.2724 56.6143 50.5884C56.9303 50.8878 57.2875 51.1287 57.6866 51.3118C58.1023 51.478 58.5429 51.561 59.0085 51.561C59.474 51.561 59.9146 51.478 60.3303 51.3118C60.746 51.1287 61.1035 50.8878 61.4026 50.5884C61.7186 50.2724 61.9682 49.9152 62.1509 49.5161C62.3337 49.1004 62.4254 48.6598 62.4254 48.1943V31.1853H69.2088V48.1943Z" fill="white"/>
<path d="M65.538 41.5383C70.8059 41.5383 75.0764 37.2678 75.0764 31.9999C75.0764 26.7319 70.8059 22.4614 65.538 22.4614C60.27 22.4614 55.9995 26.7319 55.9995 31.9999C55.9995 37.2678 60.27 41.5383 65.538 41.5383Z" fill="black"/>
<path d="M65.6921 38.7694C68.3261 38.7694 70.4613 36.6342 70.4613 34.0002C70.4613 31.3662 68.3261 29.231 65.6921 29.231C63.0581 29.231 60.9229 31.3662 60.9229 34.0002C60.9229 36.6342 63.0581 38.7694 65.6921 38.7694Z" fill="#009CFF"/>
</svg>
