<svg version="1.0" width="2268.000000pt" height="1688.000000pt" viewBox="0 0 2268.000000 1688.000000" preserveAspectRatio="xMidYMid meet" xmlns="http://www.w3.org/2000/svg">
    <defs></defs>
    <g transform="matrix(0.173012, 0, 0, -0.170077, -848.528198, 2286.33667)" fill="#ffffff" stroke="none" style="">
        <path d="M9757 13070 c-228 -58 -397 -210 -532 -480 -21 -41 -57 -105 -80
-141 -64 -99 -68 -108 -55 -123 7 -10 29 -12 73 -9 45 3 99 -3 192 -23 113
-24 152 -28 300 -28 144 0 183 4 252 22 142 38 233 86 233 123 0 14 -7 19 -26
19 -15 0 -99 24 -189 54 -183 62 -271 80 -354 74 l-58 -4 49 60 c28 33 80 105
116 160 86 131 160 205 235 235 133 54 9 103 -156 61z"></path>
        <path d="M12750 13077 c-19 -7 -35 -16 -34 -22 0 -5 27 -23 60 -40 81 -41 167
-131 242 -252 34 -56 86 -128 115 -160 29 -31 44 -54 35 -50 -79 29 -196 12
-392 -58 -67 -23 -148 -48 -179 -55 -31 -6 -57 -16 -57 -21 0 -19 50 -60 97
-80 27 -12 91 -32 143 -46 83 -22 116 -25 255 -25 133 0 182 4 290 26 72 14
163 26 203 26 67 0 72 1 72 22 0 11 -22 55 -49 97 -26 42 -63 105 -81 141
-140 280 -322 441 -557 494 -84 19 -115 19 -163 3z"></path>
        <path d="M10381 13035 c-170 -45 -314 -136 -369 -233 l-23 -41 25 -16 c66 -43
197 -62 311 -45 91 14 243 65 311 105 76 45 184 154 184 187 0 5 -26 21 -57
36 -51 23 -73 27 -173 29 -96 3 -130 -1 -209 -22z"></path>
        <path d="M11965 13046 c-51 -16 -105 -44 -105 -55 0 -13 54 -83 91 -118 114
-107 384 -196 541 -179 70 8 140 29 174 51 l25 16 -23 41 c-80 142 -337 259
-567 257 -53 0 -114 -6 -136 -13z"></path>
        <path d="M13657 12673 c-17 -16 -4 -45 31 -66 96 -61 163 -160 227 -338 24
-66 64 -158 88 -204 l45 -83 -51 26 c-74 37 -193 40 -422 12 -99 -12 -199 -19
-222 -16 -48 6 -57 -5 -37 -45 23 -45 93 -97 209 -154 181 -89 345 -124 615
-131 139 -4 188 -9 239 -26 55 -17 65 -18 78 -6 12 13 11 22 -7 74 -35 95 -56
161 -95 294 -97 335 -279 556 -532 645 -65 23 -152 33 -166 18z"></path>
        <path d="M8862 12645 c-185 -71 -350 -233 -443 -435 -53 -113 -194 -553 -184
-570 8 -13 35 -10 125 15 35 10 100 15 185 15 222 0 451 44 600 115 141 68
245 150 245 195 0 16 -9 18 -77 18 -43 0 -135 7 -206 17 -175 23 -345 18 -406
-12 -25 -12 -46 -21 -47 -20 -1 1 15 31 37 67 21 36 57 115 79 175 78 213 126
288 251 386 22 18 30 31 26 42 -10 26 -108 22 -185 -8z"></path>
        <path d="M7960 11987 c-41 -13 -163 -126 -227 -211 -61 -81 -126 -220 -154
-331 -20 -77 -23 -116 -23 -270 -1 -217 14 -541 25 -572 12 -33 40 -28 90 15
55 49 59 51 226 118 311 124 533 274 683 460 65 82 94 131 103 179 10 55 -3
60 -74 32 -35 -14 -131 -41 -212 -61 -245 -60 -388 -119 -463 -191 -46 -44
-51 -42 -33 15 6 19 14 150 19 290 9 286 20 343 86 441 59 88 44 115 -46 86z"></path>
        <path d="M14640 11978 c0 -13 16 -48 36 -78 67 -105 76 -155 84 -440 4 -140
13 -271 19 -290 18 -57 13 -59 -33 -15 -75 73 -223 133 -465 191 -80 19 -172
46 -205 59 -33 13 -63 22 -68 19 -14 -9 -8 -67 11 -109 24 -55 129 -182 204
-250 138 -125 382 -264 614 -350 76 -28 117 -51 160 -87 63 -53 89 -60 102
-25 11 31 26 355 25 572 0 207 -18 299 -84 442 -50 107 -87 160 -185 262 -80
84 -136 120 -187 121 -22 0 -28 -5 -28 -22z"></path>
        <path d="M10760 11504 c-512 -48 -924 -204 -1231 -467 -233 -199 -390 -488
-451 -827 -24 -136 -29 -396 -9 -530 56 -389 232 -703 516 -925 98 -77 141
-104 256 -161 373 -187 789 -259 1644 -284 421 -12 562 -22 742 -56 373 -68
625 -209 728 -405 41 -79 75 -218 75 -314 0 -183 -68 -366 -177 -481 -135
-140 -484 -302 -777 -359 -403 -80 -867 -43 -1318 105 -611 201 -1139 759
-1328 1405 -30 103 -29 102 -147 104 l-73 1 0 -845 0 -845 94 0 94 0 7 39 c18
107 108 224 193 249 91 28 106 24 567 -151 462 -175 742 -254 1055 -299 120
-17 551 -16 710 1 468 50 827 176 1123 393 110 81 287 262 367 376 187 265
257 475 267 793 8 255 -17 430 -97 669 -165 492 -591 846 -1162 964 -212 44
-446 62 -1059 81 -610 19 -770 35 -1025 100 -215 55 -479 172 -577 255 -99 84
-160 232 -160 385 0 141 38 216 182 369 196 206 445 328 791 389 109 19 162
21 410 22 485 0 718 -44 1014 -191 473 -236 894 -690 1118 -1209 l48 -110 70
-3 70 -3 0 801 0 800 -99 0 -98 0 -6 -39 c-14 -111 -100 -220 -194 -247 -95
-28 -191 0 -508 146 -236 109 -256 116 -490 178 -358 95 -541 122 -870 126
-132 2 -260 2 -285 0z"></path>
        <path d="M7229 10887 c-65 -44 -151 -195 -195 -344 -64 -220 -35 -470 92 -786
24 -59 55 -148 68 -198 27 -97 50 -143 69 -136 7 2 37 36 67 75 30 39 86 94
125 123 301 225 505 471 599 723 30 78 35 166 11 186 -12 10 -23 4 -62 -28
-26 -22 -109 -75 -183 -118 -163 -92 -193 -113 -292 -198 -47 -40 -90 -87
-108 -119 l-30 -52 0 36 c0 50 -33 207 -65 307 -60 190 -72 343 -35 453 32 95
10 124 -61 76z"></path>
        <path d="M15383 10873 c3 -21 13 -69 23 -108 23 -91 10 -195 -46 -390 -22 -76
-45 -171 -51 -210 -6 -38 -12 -85 -15 -103 l-5 -33 -37 56 c-45 66 -170 172
-278 236 -44 25 -122 71 -174 102 -52 30 -108 69 -124 86 -34 36 -51 39 -66
12 -28 -52 0 -167 75 -308 106 -200 275 -386 534 -586 69 -54 114 -97 136
-132 46 -72 61 -83 83 -61 9 9 38 78 63 154 25 75 65 190 88 255 73 207 85
271 86 452 0 187 -10 233 -85 390 -73 152 -136 225 -194 225 -15 0 -17 -6 -13
-37z"></path>
        <path d="M6817 9620 c-75 -87 -120 -319 -99 -506 24 -215 113 -407 317 -684
34 -47 83 -121 108 -165 84 -146 107 -153 147 -43 14 40 48 97 95 158 284 372
423 702 413 982 -3 84 -6 101 -24 119 l-22 21 -32 -48 c-18 -27 -99 -114 -180
-194 -194 -192 -310 -357 -310 -440 0 -38 -15 -20 -39 46 -13 36 -62 129 -109
207 -94 155 -153 277 -171 349 -6 26 -11 83 -11 127 0 43 -3 86 -6 95 -10 27
-41 18 -77 -24z"></path>
        <path d="M15786 9645 c-3 -9 -6 -53 -6 -98 0 -133 -38 -236 -163 -444 -77
-128 -114 -200 -137 -268 -18 -50 -18 -50 -25 -20 -28 123 -119 250 -321 450
-83 83 -164 170 -179 194 -26 43 -27 43 -46 25 -55 -56 -34 -291 47 -514 68
-190 225 -451 381 -635 20 -24 42 -67 54 -107 35 -116 63 -107 153 45 25 43
65 104 89 135 190 247 304 490 329 700 27 236 -52 539 -144 550 -16 2 -28 -3
-32 -13z"></path>
        <path d="M7695 8380 c-3 -5 -13 -35 -21 -66 -8 -31 -52 -139 -98 -239 -126
-274 -166 -420 -148 -547 l9 -57 -80 85 c-44 47 -139 131 -211 187 -228 176
-297 256 -337 389 -24 80 -47 100 -77 67 -37 -39 -46 -100 -33 -220 42 -385
217 -633 635 -899 71 -45 169 -113 218 -151 91 -70 125 -86 154 -75 15 6 16
18 10 85 -6 72 -3 88 29 191 95 302 119 443 119 695 1 212 -7 277 -51 417 -30
98 -96 174 -118 138z"></path>
        <path d="M14939 8371 c-73 -57 -129 -288 -129 -531 0 -201 38 -419 120 -691
34 -111 40 -146 38 -205 -4 -91 9 -111 56 -87 17 8 68 45 113 80 45 35 139 99
208 143 174 110 234 157 350 275 185 187 277 391 292 645 5 94 3 110 -17 157
-12 28 -28 54 -35 57 -19 7 -40 -22 -59 -84 -40 -123 -135 -234 -316 -368 -63
-47 -158 -129 -211 -182 l-97 -96 5 75 c8 126 -34 266 -163 542 -40 85 -80
181 -88 212 -22 86 -27 90 -67 58z"></path>
        <path d="M8038 7308 c0 -2 -2 -52 -4 -113 -1 -60 -12 -181 -23 -268 -25 -184
-27 -369 -7 -447 12 -45 36 -106 64 -163 2 -4 -13 4 -35 19 -71 49 -193 104
-336 153 -260 89 -380 161 -463 277 -34 47 -52 64 -69 64 -28 0 -35 -16 -35
-86 0 -127 111 -334 264 -492 166 -172 399 -288 726 -363 52 -12 149 -41 214
-66 85 -31 131 -43 160 -41 52 4 55 19 23 101 -22 55 -25 83 -31 252 -11 303
-40 487 -106 686 -43 129 -98 245 -165 347 -53 80 -62 91 -99 120 -23 18 -71
30 -78 20z"></path>
        <path d="M14546 7270 c-97 -90 -216 -323 -276 -540 -46 -168 -80 -467 -80
-702 0 -58 -6 -94 -26 -147 -14 -39 -24 -78 -20 -86 10 -26 80 -17 193 25 60
23 169 56 243 75 352 88 544 187 716 368 142 149 253 359 254 479 0 72 -6 88
-36 88 -17 0 -34 -15 -64 -60 -79 -116 -205 -192 -465 -280 -152 -52 -283
-111 -342 -156 -35 -26 -42 -22 -19 11 7 11 24 47 37 80 21 55 23 75 24 235 0
121 -6 214 -19 300 -10 69 -19 175 -20 235 l-1 110 -27 3 c-20 2 -38 -7 -72
-38z"></path>
        <path d="M8793 6344 c-19 -8 -16 -28 12 -107 14 -38 41 -158 60 -266 19 -108
44 -230 55 -271 30 -108 91 -226 150 -292 28 -32 50 -58 47 -58 -2 0 -23 7
-46 15 -62 22 -228 43 -396 50 -257 12 -399 45 -506 118 -90 63 -101 68 -116
55 -36 -29 7 -141 92 -241 196 -230 456 -362 780 -396 108 -11 785 -9 804 3
23 15 9 55 -43 124 -45 59 -60 90 -91 189 -99 318 -186 504 -335 715 -85 122
-248 283 -325 325 -60 31 -119 47 -142 37z"></path>
        <path d="M13808 6336 c-71 -25 -131 -69 -227 -165 -224 -226 -394 -540 -511
-948 -15 -53 -35 -91 -75 -144 -53 -70 -67 -110 -43 -125 19 -12 694 -14 803
-3 256 27 455 107 639 257 75 62 168 162 203 220 32 52 50 137 33 157 -7 8
-16 15 -20 15 -4 0 -37 -22 -74 -50 -122 -90 -219 -114 -536 -135 -216 -14
-343 -31 -403 -54 -16 -6 -31 -11 -33 -11 -3 0 17 25 44 56 103 115 144 227
202 544 23 123 50 248 61 279 31 85 32 90 19 106 -15 18 -33 18 -82 1z"></path>
        <path d="M9762 5670 c-39 -17 -37 -37 13 -92 25 -28 70 -92 99 -142 30 -50 85
-145 124 -211 122 -210 224 -324 340 -382 l58 -30 -97 -12 c-93 -11 -167 -30
-409 -106 -223 -70 -365 -80 -494 -35 -104 35 -137 20 -101 -47 63 -117 312
-246 556 -289 70 -12 128 -15 229 -11 204 8 385 56 660 172 71 30 168 62 225
75 185 39 194 58 82 164 -41 39 -115 125 -165 191 -141 187 -310 363 -459 478
-240 184 -562 319 -661 277z"></path>
        <path d="M12795 5670 c-99 -20 -284 -106 -420 -194 -217 -142 -411 -335 -625
-620 -38 -51 -90 -110 -115 -130 -51 -42 -78 -86 -69 -111 9 -21 35 -31 153
-56 53 -12 159 -47 236 -79 290 -119 441 -159 645 -167 101 -4 159 -1 229 11
244 43 493 172 556 289 36 68 2 83 -101 45 -47 -17 -81 -21 -169 -21 -117 0
-205 18 -403 82 -140 47 -238 70 -338 83 l-90 12 57 28 c126 63 247 206 385
453 99 179 137 238 187 292 43 47 44 67 2 83 -30 11 -63 11 -120 0z"></path>
        <path d="M11325 5461 c-3 -11 -44 -77 -91 -148 -127 -190 -148 -234 -148 -313
0 -231 289 -336 446 -162 43 48 73 136 65 189 -10 56 -58 148 -155 297 -51 77
-92 143 -92 148 0 16 -19 8 -25 -11z"></path>
        <path d="M11256 4544 c-71 -22 -140 -95 -161 -169 -30 -100 -10 -158 124 -364
50 -76 95 -149 102 -164 14 -31 24 -34 33 -11 3 8 43 72 88 142 148 229 173
296 144 394 -40 138 -191 217 -330 172z"></path>
    </g>
</svg>